<mxfile host="Electron" modified="2024-03-25T17:59:29.601Z" agent="Mozilla/5.0 (Windows NT 10.0; Win64; x64) AppleWebKit/537.36 (KHTML, like Gecko) draw.io/24.1.0 Chrome/120.0.6099.109 Electron/28.1.0 Safari/537.36" etag="uFOno5GfFHbO-VeNSziA" version="24.1.0" type="device">
  <diagram name="Seite-1" id="LhW5cYpAv-Nxgi_FASmX">
    <mxGraphModel dx="2007" dy="1196" grid="1" gridSize="10" guides="1" tooltips="1" connect="1" arrows="1" fold="1" page="1" pageScale="1" pageWidth="1169" pageHeight="827" math="0" shadow="0">
      <root>
        <mxCell id="0" />
        <mxCell id="1" parent="0" />
        <mxCell id="dhrz1JWWS2oLZGAQNo4x-9" value="" style="rounded=0;orthogonalLoop=1;jettySize=auto;html=1;exitX=1;exitY=0.25;exitDx=0;exitDy=0;exitPerimeter=0;" edge="1" parent="1" source="dhrz1JWWS2oLZGAQNo4x-1" target="dhrz1JWWS2oLZGAQNo4x-2">
          <mxGeometry relative="1" as="geometry" />
        </mxCell>
        <mxCell id="dhrz1JWWS2oLZGAQNo4x-25" value="request" style="edgeLabel;html=1;align=center;verticalAlign=middle;resizable=0;points=[];" vertex="1" connectable="0" parent="dhrz1JWWS2oLZGAQNo4x-9">
          <mxGeometry x="-0.2255" y="1" relative="1" as="geometry">
            <mxPoint as="offset" />
          </mxGeometry>
        </mxCell>
        <mxCell id="dhrz1JWWS2oLZGAQNo4x-1" value="API Gateway" style="sketch=0;points=[[0,0,0],[0.25,0,0],[0.5,0,0],[0.75,0,0],[1,0,0],[0,1,0],[0.25,1,0],[0.5,1,0],[0.75,1,0],[1,1,0],[0,0.25,0],[0,0.5,0],[0,0.75,0],[1,0.25,0],[1,0.5,0],[1,0.75,0]];outlineConnect=0;fontColor=#232F3E;fillColor=#E7157B;strokeColor=#ffffff;dashed=0;verticalLabelPosition=bottom;verticalAlign=top;align=center;html=1;fontSize=12;fontStyle=0;aspect=fixed;shape=mxgraph.aws4.resourceIcon;resIcon=mxgraph.aws4.api_gateway;" vertex="1" parent="1">
          <mxGeometry x="40" y="76" width="78" height="78" as="geometry" />
        </mxCell>
        <mxCell id="dhrz1JWWS2oLZGAQNo4x-2" value="validate" style="sketch=0;outlineConnect=0;fontColor=#232F3E;gradientColor=none;fillColor=#ED7100;strokeColor=none;dashed=0;verticalLabelPosition=bottom;verticalAlign=top;align=center;html=1;fontSize=12;fontStyle=0;aspect=fixed;pointerEvents=1;shape=mxgraph.aws4.lambda_function;" vertex="1" parent="1">
          <mxGeometry x="200" y="92" width="48" height="48" as="geometry" />
        </mxCell>
        <mxCell id="dhrz1JWWS2oLZGAQNo4x-4" value="AWS Step Functions workflow" style="points=[[0,0],[0.25,0],[0.5,0],[0.75,0],[1,0],[1,0.25],[1,0.5],[1,0.75],[1,1],[0.75,1],[0.5,1],[0.25,1],[0,1],[0,0.75],[0,0.5],[0,0.25]];outlineConnect=0;gradientColor=none;html=1;whiteSpace=wrap;fontSize=12;fontStyle=0;container=1;pointerEvents=0;collapsible=0;recursiveResize=0;shape=mxgraph.aws4.group;grIcon=mxgraph.aws4.group_aws_step_functions_workflow;strokeColor=#CD2264;fillColor=none;verticalAlign=top;align=left;spacingLeft=30;fontColor=#CD2264;dashed=0;" vertex="1" parent="1">
          <mxGeometry x="380" y="40" width="280" height="300" as="geometry" />
        </mxCell>
        <mxCell id="dhrz1JWWS2oLZGAQNo4x-5" value="hmrc" style="sketch=0;outlineConnect=0;fontColor=#232F3E;gradientColor=none;fillColor=#ED7100;strokeColor=none;dashed=0;verticalLabelPosition=bottom;verticalAlign=top;align=center;html=1;fontSize=12;fontStyle=0;aspect=fixed;pointerEvents=1;shape=mxgraph.aws4.lambda_function;" vertex="1" parent="dhrz1JWWS2oLZGAQNo4x-4">
          <mxGeometry x="200" y="40" width="48" height="48" as="geometry" />
        </mxCell>
        <mxCell id="dhrz1JWWS2oLZGAQNo4x-6" value="bzst" style="sketch=0;outlineConnect=0;fontColor=#232F3E;gradientColor=none;fillColor=#ED7100;strokeColor=none;dashed=0;verticalLabelPosition=bottom;verticalAlign=top;align=center;html=1;fontSize=12;fontStyle=0;aspect=fixed;pointerEvents=1;shape=mxgraph.aws4.lambda_function;" vertex="1" parent="dhrz1JWWS2oLZGAQNo4x-4">
          <mxGeometry x="200" y="130" width="48" height="48" as="geometry" />
        </mxCell>
        <mxCell id="dhrz1JWWS2oLZGAQNo4x-7" value="vies" style="sketch=0;outlineConnect=0;fontColor=#232F3E;gradientColor=none;fillColor=#ED7100;strokeColor=none;dashed=0;verticalLabelPosition=bottom;verticalAlign=top;align=center;html=1;fontSize=12;fontStyle=0;aspect=fixed;pointerEvents=1;shape=mxgraph.aws4.lambda_function;" vertex="1" parent="dhrz1JWWS2oLZGAQNo4x-4">
          <mxGeometry x="200" y="220" width="48" height="48" as="geometry" />
        </mxCell>
        <mxCell id="dhrz1JWWS2oLZGAQNo4x-11" value="" style="endArrow=classic;html=1;rounded=0;exitX=0;exitY=0.25;exitDx=0;exitDy=0;" edge="1" parent="dhrz1JWWS2oLZGAQNo4x-4" source="dhrz1JWWS2oLZGAQNo4x-4" target="dhrz1JWWS2oLZGAQNo4x-5">
          <mxGeometry width="50" height="50" relative="1" as="geometry">
            <mxPoint x="590" y="450" as="sourcePoint" />
            <mxPoint x="640" y="400" as="targetPoint" />
          </mxGeometry>
        </mxCell>
        <mxCell id="dhrz1JWWS2oLZGAQNo4x-12" value="if GB" style="edgeLabel;html=1;align=center;verticalAlign=middle;resizable=0;points=[];" vertex="1" connectable="0" parent="dhrz1JWWS2oLZGAQNo4x-11">
          <mxGeometry x="-0.0544" relative="1" as="geometry">
            <mxPoint as="offset" />
          </mxGeometry>
        </mxCell>
        <mxCell id="dhrz1JWWS2oLZGAQNo4x-13" value="" style="endArrow=classic;html=1;rounded=0;exitX=0;exitY=0.25;exitDx=0;exitDy=0;" edge="1" parent="dhrz1JWWS2oLZGAQNo4x-4" source="dhrz1JWWS2oLZGAQNo4x-4" target="dhrz1JWWS2oLZGAQNo4x-6">
          <mxGeometry width="50" height="50" relative="1" as="geometry">
            <mxPoint x="590" y="450" as="sourcePoint" />
            <mxPoint x="640" y="400" as="targetPoint" />
          </mxGeometry>
        </mxCell>
        <mxCell id="dhrz1JWWS2oLZGAQNo4x-15" value="if own is DE or TYPE=bzst" style="edgeLabel;html=1;align=center;verticalAlign=middle;resizable=0;points=[];" vertex="1" connectable="0" parent="dhrz1JWWS2oLZGAQNo4x-13">
          <mxGeometry x="-0.0512" y="2" relative="1" as="geometry">
            <mxPoint x="19" y="2" as="offset" />
          </mxGeometry>
        </mxCell>
        <mxCell id="dhrz1JWWS2oLZGAQNo4x-14" value="" style="endArrow=classic;html=1;rounded=0;exitX=0;exitY=0.25;exitDx=0;exitDy=0;" edge="1" parent="dhrz1JWWS2oLZGAQNo4x-4" source="dhrz1JWWS2oLZGAQNo4x-4" target="dhrz1JWWS2oLZGAQNo4x-7">
          <mxGeometry width="50" height="50" relative="1" as="geometry">
            <mxPoint x="590" y="450" as="sourcePoint" />
            <mxPoint x="640" y="400" as="targetPoint" />
          </mxGeometry>
        </mxCell>
        <mxCell id="dhrz1JWWS2oLZGAQNo4x-17" value="if own is not DE or TYPE=vies" style="edgeLabel;html=1;align=center;verticalAlign=middle;resizable=0;points=[];" vertex="1" connectable="0" parent="dhrz1JWWS2oLZGAQNo4x-4">
          <mxGeometry x="110.00279594500842" y="190.00483681016334" as="geometry" />
        </mxCell>
        <mxCell id="dhrz1JWWS2oLZGAQNo4x-8" value="DynamoDB" style="sketch=0;points=[[0,0,0],[0.25,0,0],[0.5,0,0],[0.75,0,0],[1,0,0],[0,1,0],[0.25,1,0],[0.5,1,0],[0.75,1,0],[1,1,0],[0,0.25,0],[0,0.5,0],[0,0.75,0],[1,0.25,0],[1,0.5,0],[1,0.75,0]];outlineConnect=0;fontColor=#232F3E;fillColor=#C925D1;strokeColor=#ffffff;dashed=0;verticalLabelPosition=bottom;verticalAlign=top;align=center;html=1;fontSize=12;fontStyle=0;aspect=fixed;shape=mxgraph.aws4.resourceIcon;resIcon=mxgraph.aws4.dynamodb;" vertex="1" parent="1">
          <mxGeometry x="780" y="140" width="78" height="78" as="geometry" />
        </mxCell>
        <mxCell id="dhrz1JWWS2oLZGAQNo4x-10" value="" style="endArrow=classic;html=1;rounded=0;entryX=0;entryY=0.25;entryDx=0;entryDy=0;startArrow=classic;startFill=1;" edge="1" parent="1" source="dhrz1JWWS2oLZGAQNo4x-2" target="dhrz1JWWS2oLZGAQNo4x-4">
          <mxGeometry width="50" height="50" relative="1" as="geometry">
            <mxPoint x="950" y="490" as="sourcePoint" />
            <mxPoint x="1000" y="440" as="targetPoint" />
          </mxGeometry>
        </mxCell>
        <mxCell id="dhrz1JWWS2oLZGAQNo4x-27" value="trigger step function" style="edgeLabel;html=1;align=center;verticalAlign=middle;resizable=0;points=[];" vertex="1" connectable="0" parent="dhrz1JWWS2oLZGAQNo4x-10">
          <mxGeometry x="0.0893" relative="1" as="geometry">
            <mxPoint x="-10" as="offset" />
          </mxGeometry>
        </mxCell>
        <mxCell id="dhrz1JWWS2oLZGAQNo4x-18" value="" style="endArrow=classic;html=1;rounded=0;entryX=0;entryY=0.5;entryDx=0;entryDy=0;entryPerimeter=0;" edge="1" parent="1" source="dhrz1JWWS2oLZGAQNo4x-5" target="dhrz1JWWS2oLZGAQNo4x-8">
          <mxGeometry width="50" height="50" relative="1" as="geometry">
            <mxPoint x="970" y="490" as="sourcePoint" />
            <mxPoint x="1020" y="440" as="targetPoint" />
          </mxGeometry>
        </mxCell>
        <mxCell id="dhrz1JWWS2oLZGAQNo4x-19" value="" style="endArrow=classic;html=1;rounded=0;entryX=0;entryY=0.5;entryDx=0;entryDy=0;entryPerimeter=0;" edge="1" parent="1" source="dhrz1JWWS2oLZGAQNo4x-6" target="dhrz1JWWS2oLZGAQNo4x-8">
          <mxGeometry width="50" height="50" relative="1" as="geometry">
            <mxPoint x="638" y="124" as="sourcePoint" />
            <mxPoint x="790" y="189" as="targetPoint" />
          </mxGeometry>
        </mxCell>
        <mxCell id="dhrz1JWWS2oLZGAQNo4x-20" value="" style="endArrow=classic;html=1;rounded=0;entryX=0;entryY=0.5;entryDx=0;entryDy=0;entryPerimeter=0;" edge="1" parent="1" source="dhrz1JWWS2oLZGAQNo4x-7" target="dhrz1JWWS2oLZGAQNo4x-8">
          <mxGeometry width="50" height="50" relative="1" as="geometry">
            <mxPoint x="648" y="134" as="sourcePoint" />
            <mxPoint x="800" y="199" as="targetPoint" />
          </mxGeometry>
        </mxCell>
        <mxCell id="dhrz1JWWS2oLZGAQNo4x-21" value="archive result" style="text;html=1;align=center;verticalAlign=middle;resizable=0;points=[];autosize=1;strokeColor=none;fillColor=none;" vertex="1" parent="1">
          <mxGeometry x="660" y="160" width="90" height="30" as="geometry" />
        </mxCell>
        <mxCell id="dhrz1JWWS2oLZGAQNo4x-23" value="" style="endArrow=classic;html=1;rounded=0;entryX=1;entryY=0.75;entryDx=0;entryDy=0;entryPerimeter=0;" edge="1" parent="1" source="dhrz1JWWS2oLZGAQNo4x-2" target="dhrz1JWWS2oLZGAQNo4x-1">
          <mxGeometry width="50" height="50" relative="1" as="geometry">
            <mxPoint x="990" y="630" as="sourcePoint" />
            <mxPoint x="1040" y="580" as="targetPoint" />
          </mxGeometry>
        </mxCell>
        <mxCell id="dhrz1JWWS2oLZGAQNo4x-26" value="response" style="edgeLabel;html=1;align=center;verticalAlign=middle;resizable=0;points=[];" vertex="1" connectable="0" parent="dhrz1JWWS2oLZGAQNo4x-23">
          <mxGeometry x="-0.0191" y="1" relative="1" as="geometry">
            <mxPoint as="offset" />
          </mxGeometry>
        </mxCell>
      </root>
    </mxGraphModel>
  </diagram>
</mxfile>
